<svg width="25" height="24" viewBox="0 0 25 24" fill="none" xmlns="http://www.w3.org/2000/svg">
<g opacity="0.7">
<path d="M21.5 12.79C21.3427 14.4922 20.7039 16.1144 19.6583 17.4668C18.6127 18.8192 17.2035 19.8458 15.5957 20.4265C13.9879 21.0073 12.248 21.1181 10.5795 20.7461C8.91104 20.3741 7.38302 19.5345 6.17425 18.3258C4.96548 17.117 4.12596 15.589 3.75393 13.9205C3.3819 12.252 3.49274 10.5121 4.07348 8.9043C4.65423 7.29651 5.68085 5.88737 7.03324 4.84175C8.38562 3.79614 10.0078 3.15731 11.71 3C10.7134 4.34827 10.2339 6.00945 10.3586 7.68141C10.4832 9.35338 11.2039 10.9251 12.3894 12.1106C13.575 13.2961 15.1466 14.0168 16.8186 14.1415C18.4906 14.2662 20.1518 13.7866 21.5 12.79V12.79Z" stroke="#282846" stroke-width="2" stroke-linecap="round" stroke-linejoin="round"/>
</g>
</svg>
